<svg width="17" height="16" viewBox="0 0 17 16" fill="none" xmlns="http://www.w3.org/2000/svg">
<path d="M15.4688 5.88477C15.7031 5.94336 15.9082 6.06055 16.0547 6.23633C16.2012 6.44141 16.2598 6.64648 16.2598 6.88086C16.2598 7.11523 16.1719 7.32031 15.9961 7.49609L12.8906 10.5137L13.623 14.791C13.6523 15.0254 13.5938 15.2598 13.4766 15.4648C13.3594 15.6699 13.1836 15.7871 12.9492 15.8457C12.7148 15.9043 12.4805 15.875 12.2754 15.7578L8.4375 13.7656L4.59961 15.7578C4.36523 15.875 4.16016 15.9043 3.92578 15.8457C3.69141 15.7871 3.48633 15.6699 3.36914 15.4648C3.25195 15.2598 3.19336 15.0254 3.25195 14.791L3.98438 10.5137L0.878906 7.49609C0.703125 7.32031 0.585938 7.11523 0.585938 6.88086C0.585938 6.64648 0.644531 6.44141 0.791016 6.23633C0.9375 6.06055 1.14258 5.94336 1.40625 5.88477L5.68359 5.26953L7.58789 1.40234C7.70508 1.16797 7.85156 1.02148 8.08594 0.933594C8.32031 0.875 8.52539 0.875 8.75977 0.933594C8.99414 1.02148 9.16992 1.16797 9.28711 1.40234L11.1914 5.26953L15.4688 5.88477ZM11.8945 10.1914L15.3516 6.82227L10.5762 6.11914L8.4375 1.8125L6.29883 6.11914L1.55273 6.82227L4.98047 10.1914L4.18945 14.9375L8.4375 12.6816L12.7148 14.9375L11.8945 10.1914Z" fill="#B4B7BB"/>
</svg>
