<svg width="17" height="16" viewBox="0 0 17 16" fill="none" xmlns="http://www.w3.org/2000/svg">
<path d="M15.4688 5.88575C15.7031 5.94434 15.9082 6.06153 16.0547 6.23731C16.2012 6.44239 16.2598 6.64746 16.2598 6.88184C16.2598 7.11621 16.1719 7.32129 15.9961 7.49707L12.8906 10.5147L13.623 14.792C13.6523 15.0264 13.5938 15.2608 13.4766 15.4658C13.3594 15.6709 13.1836 15.7881 12.9492 15.8467C12.7148 15.9053 12.4805 15.876 12.2754 15.7588L8.4375 13.7666L4.59961 15.7588C4.36523 15.876 4.16016 15.9053 3.92578 15.8467C3.69141 15.7881 3.48633 15.6709 3.36914 15.4658C3.25195 15.2608 3.19336 15.0264 3.25195 14.792L3.98438 10.5147L0.878906 7.49707C0.703125 7.32129 0.585938 7.11621 0.585938 6.88184C0.585938 6.64746 0.644531 6.44239 0.791016 6.23731C0.9375 6.06153 1.14258 5.94434 1.40625 5.88575L5.68359 5.27051L7.58789 1.40332C7.70508 1.16895 7.85156 1.02246 8.08594 0.93457C8.32031 0.875976 8.52539 0.875976 8.75977 0.93457C8.99414 1.02246 9.16992 1.16895 9.28711 1.40332L11.1914 5.27051L15.4688 5.88575ZM11.8945 10.1924L15.3516 6.82325L10.5762 6.12012L8.4375 1.81348L6.29883 6.12012L1.55273 6.82325L4.98047 10.1924L4.18945 14.9385L8.4375 12.6826L12.7148 14.9385L11.8945 10.1924Z" fill="#B4B7BB"/>
<path d="M11.8926 10.1914L15.3497 6.82227L10.5743 6.11914L8.43555 1.8125L6.29688 6.11914L1.55078 6.82227L4.97852 10.1914L4.1875 14.9375L8.43555 12.6816L12.7129 14.9375L11.8926 10.1914Z" fill="white"/>
</svg>
