<svg width="128" height="30" viewBox="0 0 128 30" fill="none" xmlns="http://www.w3.org/2000/svg">
<path d="M16.769 19.38L0 30L16.769 0L33.538 30L16.769 19.38Z" fill="#0066FF"/>
<path d="M60.066 22H64.73L61.408 17.16C63.322 16.236 64.422 14.564 64.422 12.298C64.422 8.778 61.782 6.6 57.58 6.6H50.54V22H54.896V17.908H57.272L60.066 22ZM60.022 12.298C60.022 13.706 59.12 14.542 57.316 14.542H54.896V10.032H57.316C59.12 10.032 60.022 10.868 60.022 12.298ZM73.9286 18.59C73.5766 18.832 73.1146 18.964 72.6526 18.964C71.9046 18.964 71.3986 18.48 71.3986 17.6V13.64H74.1266V10.516H71.3986V7.414H67.2186V10.516H65.4806V13.64H67.2186V17.644C67.2186 20.702 69.0006 22.198 72.0586 22.198C73.1586 22.198 74.2366 21.978 74.9626 21.516L73.9286 18.59ZM80.5564 11.506V10.076H76.5744V22H80.7544V16.522C80.7544 14.432 81.9204 13.574 83.6144 13.574C83.9224 13.574 84.1864 13.596 84.5604 13.64V9.878C82.8004 9.878 81.4144 10.428 80.5564 11.506ZM91.2814 9.878C89.4114 9.878 87.3874 10.362 86.0234 11.264L87.4314 14.102C88.2454 13.464 89.5214 13.068 90.6654 13.068C92.3154 13.068 93.1294 13.75 93.1954 14.96H90.8194C87.1234 14.96 85.5174 16.324 85.5174 18.524C85.5174 20.592 87.1014 22.198 89.9614 22.198C91.6994 22.198 92.8874 21.604 93.4814 20.46V22H97.3754V15.378C97.3754 11.594 95.1534 9.878 91.2814 9.878ZM91.1274 19.558C90.1374 19.558 89.5654 19.052 89.5654 18.348C89.5654 17.622 90.0494 17.138 91.3914 17.138H93.1954V18.172C92.8654 19.118 92.0514 19.558 91.1274 19.558ZM106.28 22.198C108.986 22.198 111.054 20.988 111.868 18.92L108.634 17.27C108.062 18.392 107.226 18.876 106.258 18.876C104.806 18.876 103.662 17.864 103.662 16.016C103.662 14.212 104.806 13.2 106.258 13.2C107.226 13.2 108.062 13.684 108.634 14.806L111.868 13.156C111.054 11.088 108.986 9.878 106.28 9.878C102.276 9.878 99.4378 12.43 99.4378 16.016C99.4378 19.646 102.276 22.198 106.28 22.198ZM122.155 22H127.215L121.847 15.18L126.797 10.076H121.847L117.579 14.234V5.676H113.399V22H117.579V19.074L118.811 17.82L122.155 22Z" fill="#212121"/>
</svg>
