<svg width="24" height="23" viewBox="0 0 24 23" fill="none" xmlns="http://www.w3.org/2000/svg">
<path d="M22.6875 8.14071L16.4141 7.23836L13.5781 1.52352C13.1055 0.535241 11.6445 0.492273 11.1289 1.52352L8.33594 7.23836L2.01953 8.14071C0.902339 8.31259 0.472651 9.68758 1.28906 10.504L5.80078 14.9298L4.72656 21.1603C4.55469 22.2774 5.75781 23.1368 6.74609 22.6212L12.375 19.6563L17.9609 22.6212C18.9492 23.1368 20.1523 22.2774 19.9805 21.1603L18.9062 14.9298L23.418 10.504C24.2344 9.68758 23.8047 8.31259 22.6875 8.14071ZM17.4023 14.4142L18.6055 21.3751L12.375 18.1095L6.10156 21.3751L7.30469 14.4142L2.23438 9.51571L9.23828 8.48446L12.375 2.12508L15.4688 8.48446L22.4727 9.51571L17.4023 14.4142Z" fill="#212121"/>
<path d="M17.4023 14.4141L18.6055 21.375L12.375 18.1094L6.10155 21.375L7.30468 14.4141L2.23438 9.51562L9.23828 8.48438L12.375 2.125L15.4688 8.48438L22.4727 9.51562L17.4023 14.4141Z" fill="white"/>
</svg>
